<?xml version="1.0" encoding="utf-8"?>
<!-- Generator: Adobe Illustrator 23.0.5, SVG Export Plug-In . SVG Version: 6.00 Build 0)  -->
<svg version="1.1" id="Layer_1" xmlns="http://www.w3.org/2000/svg" xmlns:xlink="http://www.w3.org/1999/xlink" x="0px" y="0px"
	 viewBox="0 0 396 60" style="enable-background:new 0 0 396 60;" xml:space="preserve">
<style type="text/css">
	.st0{opacity:0.6;}
	.st1{fill:#FFFFFF;}
</style>
<g class="st0">
	<path class="st1" d="M109.9,41.4c-0.2,0.7-0.5,1.3-0.7,1.9c-1.8,0-3.5,0-5.3,0c0-10.8,0-21.5,0-32.2c2.4,0,4.7,0,7,0
		c0,3.8,0,7.5,0,11.3c0.2-0.1,0.4-0.2,0.5-0.3c3.3-3.2,10.2-2,12.4,3c2,4.6,1.9,9.4-0.2,13.9c-2.6,5.7-10.2,6.4-13.3,2.5
		C110.2,41.5,110.1,41.5,109.9,41.4z M110.6,32c0.2,1.6,0.4,3,0.7,4.4c0.3,1.3,1.1,2.4,2.7,2.5c1.6,0.1,2.9-0.5,3.6-2.1
		c1.3-3.3,1.2-6.7-0.4-9.9c-0.6-1.2-1.7-1.8-3.1-1.7c-1.4,0.1-2.2,0.9-2.5,2.1C111.1,28.9,110.9,30.5,110.6,32z"/>
	<path class="st1" d="M173.6,43.6c-2.2,0-4.4,0-6.5,0c-0.4,0-0.8-0.5-1.1-0.8c-2-2.9-4-5.8-6.5-8.9c-0.2,0.7-0.7,1.5-0.7,2.2
		c-0.1,2.4,0,4.7,0,7.2c-2.3,0-4.4,0-6.7,0c0-10.7,0-21.4,0-32.2c2.4,0,4.7,0,6.9,0c0,5.4,0,10.7,0,16.3c1-1,1.9-1.9,2.8-2.8
		c1.2-1.2,2.2-2.9,3.7-3.5c1.4-0.6,3.3-0.1,5-0.1c0.7,0,1.4,0,2.5,0c-3,3-5.8,5.9-8.6,8.7c3.2,4.5,6.3,9,9.4,13.5
		C173.7,43.3,173.7,43.4,173.6,43.6z"/>
	<path class="st1" d="M79,32.1c0-5.7,3.8-10.7,8.9-11.6c6.4-1.1,12.4,3.6,13,10.2c0.4,5.1-1.1,9.3-5.7,11.9c-7,4-15.7-1-16.2-9.2
		C79,33,79,32.5,79,32.1z M94.6,32c-0.5-1.5-0.7-3.1-1.4-4.4c-1.3-2.5-4.3-2.7-6-0.7c-2.1,2.4-2.1,8.1,0.1,10.4
		c1.5,1.6,3.7,1.6,5.2,0.1C93.9,36,94.3,34.1,94.6,32z"/>
	<path class="st1" d="M137.7,26c-2.5,0-4.9,0-7.4,0c0-1.8,0-3.4,0-5.2c4.8,0,9.5,0,14.3,0c0,0.3,0.1,0.5,0.1,0.8c0,6.7,0,13.4,0,20
		c0,3-0.7,5.7-3,7.9c-3.1,2.9-10.1,3.7-14.4-1.3c1.3-1.7,2.6-3.4,3.9-5.2c0.2,0.4,0.4,0.6,0.5,0.8c0.4,2,2.3,2.8,4.2,2.4
		c0.6-0.1,1.2-0.8,1.5-1.4c0.3-0.7,0.4-1.5,0.4-2.3c0-5.2,0-10.5,0-15.7C137.8,26.6,137.7,26.4,137.7,26z"/>
	<path class="st1" d="M180.7,26c-1.5,0-2.8,0-4.3,0c0-1.8,0-3.4,0-5.2c1.5,0,3,0,4.6,0c0.1-1.8,0.1-3.4,0.2-5.1
		c2.5-0.3,4.8-0.6,7.2-0.9c-0.3,2-0.5,3.8-0.8,5.9c2.3,0,4.5,0,6.8,0c0,1.8,0,3.5,0,5.3c-2.3,0-4.5,0-7,0c0,3.4-0.2,6.6,0.1,9.9
		c0.2,2.4,1.7,3.2,4,2.5c1.1-0.3,2.1-1,3.4-1.5c0.3,1.3,0.7,2.7,1,4.1c0,0.2-0.1,0.5-0.3,0.7c-3.2,2.5-8.3,3.2-11.4,1.4
		c-2.2-1.3-3.2-3.3-3.4-5.7c-0.2-3.2-0.1-6.4-0.1-9.6C180.7,27.2,180.7,26.7,180.7,26z"/>
	<path class="st1" d="M253.1,43.3c-1.4,0-2.6,0-3.9,0c0-5.2,0-10.4,0-15.8c1.3,0.1,2.7,0.1,4.5,0.2c1.5-1,2.8-0.9,4.2,0.8
		c0.8-0.4,1.6-1,2.4-1.2c2.3-0.4,3.8,0.6,4,3c0.2,2.1,0.1,4.2,0.2,6.3c0,2.2,0,4.4,0,6.7c-1.3,0-2.6,0-4,0c0-3.1,0-6.2,0-9.2
		c0-0.9,0-1.8-0.1-2.6c0-0.3-0.3-0.7-0.4-0.7c-0.3,0-0.8,0.2-0.8,0.4c-0.3,1-0.5,2-0.5,2.9c-0.1,3,0,6.1,0,9.2c-1.2,0-2.3,0-3.6,0
		c0-1.1,0-2.2,0-3.4c0-2.8,0-5.5-0.1-8.3c0-0.4-0.4-0.8-0.6-1.1c-0.3,0.3-0.8,0.6-0.9,1c-0.2,0.8-0.3,1.6-0.3,2.3
		C253.1,36.9,253.1,40.1,253.1,43.3z"/>
	<path class="st1" d="M247.6,35.6c-0.1,5.9-5.5,9.7-10.7,7.6c-3.6-1.5-5.6-5.9-4.4-10.1c1.1-4,4.7-6.5,8.7-5.8
		C244.8,27.9,247.7,31.6,247.6,35.6z M236.7,35.6c0.3,1.1,0.5,2.2,1,3.1c1,1.8,3.3,1.8,4.4,0.1c1.1-1.6,1.1-4.9,0-6.5
		c-1.2-1.7-3.4-1.8-4.4,0.1C237.1,33.3,237,34.5,236.7,35.6z"/>
	<path class="st1" d="M227.8,33.6c-0.3-1.9-1.4-2.5-2.8-2.6c-1.7-0.1-3,0.4-3.8,2c-0.8,1.5-0.9,3.1-0.3,4.7c0.8,2.3,3.3,3.1,5.6,1.9
		c0.6-0.3,1.1-0.8,1.8-1.3c0.7,0.8,1.5,1.8,2.3,2.6c-1,2.3-5.9,3.4-9.1,2.5c-3.4-1-5.7-4-5.7-7.7c0-3.7,2.4-7.1,5.8-8.1
		c3.5-1.1,7.3,0,9.1,2.8C229.7,31.3,228.8,32.4,227.8,33.6z"/>
	<path class="st1" d="M136.7,13.9c0-2.2,1.6-3.7,3.9-3.7c2.2,0,4.1,1.7,4.1,3.8c0,2-1.9,3.8-4,3.8C138.5,17.8,136.7,16,136.7,13.9z"
		/>
	<path class="st1" d="M206,38c1.6,0,2.9,1.3,2.8,3c0,1.6-1.4,2.9-3,2.9c-1.6,0-2.9-1.4-2.9-3C203,39.2,204.4,37.9,206,38z"/>
</g>
</svg>
