<?xml version="1.0" encoding="utf-8"?>
<!-- Generator: Adobe Illustrator 23.0.5, SVG Export Plug-In . SVG Version: 6.00 Build 0)  -->
<svg version="1.1" id="Layer_1" xmlns="http://www.w3.org/2000/svg" xmlns:xlink="http://www.w3.org/1999/xlink" x="0px" y="0px"
	 viewBox="0 0 396 60" style="enable-background:new 0 0 396 60;" xml:space="preserve">
<style type="text/css">
	.st0{opacity:0.61;fill:#FFFFFF;}
</style>
<path class="st0" d="M190.7,16.3h-8.8V40h-2.2V16.3H171v-1.8h19.7V16.3z M198.8,40.4c-1.6,0-3.1-0.4-4.4-1.2c-1.3-0.8-2.3-1.9-3-3.3
	c-0.7-1.4-1.1-3-1.1-4.8v-0.8c0-1.8,0.4-3.5,1.1-4.9s1.7-2.6,3-3.4s2.6-1.3,4.1-1.3c2.3,0,4.1,0.8,5.5,2.4s2,3.7,2,6.5v1.2h-13.6
	v0.4c0,2.2,0.6,4,1.8,5.4c1.2,1.4,2.8,2.2,4.7,2.2c1.1,0,2.1-0.2,3-0.6c0.9-0.4,1.6-1.1,2.4-2l1.3,1C204,39.3,201.7,40.4,198.8,40.4
	L198.8,40.4z M198.4,22.5c-1.6,0-2.9,0.6-4,1.7s-1.7,2.7-2,4.7h11.4v-0.2c-0.1-1.8-0.6-3.3-1.6-4.5C201.3,23,200,22.5,198.4,22.5
	L198.4,22.5z M212.1,38.3h12.3V40h-14.9v-1.6L221,22.9h-11.2V21h13.8v1.6L212.1,38.3z M227.5,30.2c0-1.8,0.4-3.5,1.1-4.9
	c0.7-1.5,1.7-2.6,3-3.4s2.8-1.2,4.4-1.2c2.5,0,4.6,0.9,6.1,2.7c1.6,1.8,2.4,4.1,2.4,7.1v0.4c0,1.8-0.4,3.5-1.1,4.9
	c-0.7,1.5-1.7,2.6-3,3.4c-1.3,0.8-2.8,1.2-4.4,1.2c-2.5,0-4.6-0.9-6.1-2.7c-1.6-1.8-2.4-4.1-2.4-7.1L227.5,30.2z M229.6,30.8
	c0,2.3,0.6,4.1,1.8,5.6c1.2,1.5,2.7,2.2,4.6,2.2c1.9,0,3.4-0.7,4.6-2.2c1.2-1.5,1.8-3.4,1.8-5.8v-0.4c0-1.4-0.3-2.8-0.8-4
	c-0.5-1.2-1.3-2.1-2.3-2.8c-1-0.7-2.1-1-3.3-1c-1.9,0-3.4,0.7-4.6,2.2c-1.2,1.5-1.8,3.4-1.8,5.8L229.6,30.8z M260.1,35.2
	c0-1-0.4-1.9-1.3-2.5c-0.8-0.6-2.1-1.1-3.8-1.5c-1.7-0.4-3-0.8-3.9-1.2c-0.9-0.5-1.6-1-2.1-1.7c-0.4-0.7-0.7-1.5-0.7-2.4
	c0-1.5,0.6-2.7,1.9-3.7c1.2-1,2.9-1.5,4.8-1.5c2.1,0,3.8,0.5,5.1,1.6c1.3,1,1.9,2.4,1.9,4.1H260c0-1.1-0.5-2-1.4-2.8
	c-0.9-0.7-2.1-1.1-3.5-1.1c-1.4,0-2.5,0.3-3.3,0.9c-0.8,0.6-1.3,1.4-1.3,2.4c0,1,0.4,1.7,1,2.2c0.7,0.5,2,1,3.8,1.4
	c1.8,0.4,3.2,0.9,4.1,1.4c0.9,0.5,1.6,1.1,2,1.8c0.4,0.7,0.7,1.5,0.7,2.5c0,1.6-0.6,2.9-1.9,3.8c-1.3,1-3,1.4-5.1,1.4
	c-2.2,0-4-0.5-5.4-1.6c-1.4-1.1-2.1-2.4-2.1-4.1h2.1c0.1,1.2,0.6,2.2,1.6,2.9c1,0.7,2.2,1,3.8,1c1.5,0,2.6-0.3,3.6-1
	C259.7,37,260.1,36.2,260.1,35.2L260.1,35.2z M155.5,41.5c-0.5-9-11.9-13.1-13-13.6c0,0,0-0.1,0-0.1L154.2,16v-1.3
	c0-0.2-0.2-0.4-0.4-0.4h-21.6V5.2l-8,1.7V8h0.4c0,0,2,0,2,2v4.4h-6.2c-0.1,0-0.2,0.1-0.2,0.2v2.8h6.4v15.1c0,4.7,3,8,8.4,7.6
	c1.1-0.1,2.2-0.5,3.1-1.1c0.4-0.3,0.6-0.7,0.6-1.2v-1.5c-1.7,1.2-3.2,1.1-3.2,1.1c-3.4,0-3.3-4.3-3.3-4.3V17.4h15.5l-11.2,11.3
	c0,1.5,0,2.6,0,2.7c0,0,0,0.1,0.1,0.1c10.3,1.7,13,8.4,13,10.3c0,0,1.1,9.4-8.3,10c0,0-6.1,0.3-7.2-2.2c0-0.1,0-0.2,0.1-0.2
	c1-0.5,1.7-1.4,1.7-2.6c0-1.8-1.1-3.3-3.4-3.3c-1.9,0-3.4,1.5-3.4,3.3c0,0-0.9,7.9,12.3,7.7C156.4,54.1,155.5,41.5,155.5,41.5z"/>
</svg>
